HIERARCHY
ROOT hips
{
	OFFSET -0.003675 0.299928 -0.021708
	CHANNELS 6 Xposition Yposition Zposition Xrotation Yrotation Zrotation
	JOINT LowerBack
	{
		OFFSET 0.000919 0.177588 0.009275
		CHANNELS 3 Xrotation Yrotation Zrotation
		JOINT spine
		{
			OFFSET 0.000919 0.177588 0.009275
			CHANNELS 3 Xrotation Yrotation Zrotation
			JOINT chest
			{
				OFFSET 0.000456 0.100015 0.004638
				CHANNELS 3 Xrotation Yrotation Zrotation
				JOINT neck
				{
					OFFSET 0.000456 0.100015 0.004638
					CHANNELS 3 Xrotation Yrotation Zrotation
					JOINT head
					{
						OFFSET 0.000924 0.155147 0.009274
						CHANNELS 6 Xposition Yposition Zposition Xrotation Yrotation Zrotation
						End Site
						{
							OFFSET 0.000000 0.153400 0.000000
						}
					}
				}
				JOINT shoulder.L
				{
					OFFSET 0.019937 0.078966 0.057518
					CHANNELS 6 Xposition Yposition Zposition Yrotation Xrotation Zrotation
					JOINT upper_arm.L
					{
						OFFSET 0.177024 -0.020465 -0.095062
						CHANNELS 6 Xposition Yposition Zposition Xrotation Yrotation Zrotation
						JOINT forearm.L
						{
							OFFSET 0.247100 -0.135500 -0.061800
							CHANNELS 3 Xrotation Yrotation Zrotation
							JOINT hand.L
							{
								OFFSET 0.217000 -0.143000 0.039300
								CHANNELS 3 Xrotation Yrotation Zrotation
								JOINT palm.01.L
								{
									OFFSET 0.021770 -0.038291 0.012954
									CHANNELS 6 Xposition Yposition Zposition Yrotation Xrotation Zrotation
									JOINT f_index.01.L
									{
										OFFSET 0.053215 -0.044137 0.008236
										CHANNELS 3 Xrotation Yrotation Zrotation
										JOINT f_index.02.L
										{
											OFFSET 0.036108 -0.024723 -0.010656
											CHANNELS 3 Xrotation Yrotation Zrotation
											JOINT f_index.03.L
											{
												OFFSET 0.021342 -0.014948 -0.010846
												CHANNELS 3 Xrotation Yrotation Zrotation
												End Site
												{
													OFFSET 0.015600 -0.009860 -0.013421
												}
											}
										}
									}
									JOINT thumb.01.L
									{
										OFFSET -0.009090 -0.002348 -0.024223
										CHANNELS 6 Xposition Yposition Zposition Xrotation Yrotation Zrotation
										JOINT thumb.02.L
										{
											OFFSET 0.019713 -0.035076 -0.011120
											CHANNELS 3 Xrotation Yrotation Zrotation
											JOINT thumb.03.L
											{
												OFFSET 0.024877 -0.021748 -0.005176
												CHANNELS 3 Xrotation Yrotation Zrotation
												End Site
												{
													OFFSET 0.016125 -0.013029 -0.001569
												}
											}
										}
									}
								}
								JOINT palm.02.L
								{
									OFFSET 0.032823 -0.025104 0.012281
									CHANNELS 6 Xposition Yposition Zposition Yrotation Xrotation Zrotation
									JOINT f_middle.01.L
									{
										OFFSET 0.055723 -0.038469 0.008037
										CHANNELS 3 Xrotation Yrotation Zrotation
										JOINT f_middle.02.L
										{
											OFFSET 0.038167 -0.027473 -0.015582
											CHANNELS 3 Xrotation Yrotation Zrotation
											JOINT f_middle.03.L
											{
												OFFSET 0.021707 -0.016587 -0.017037
												CHANNELS 3 Xrotation Yrotation Zrotation
												End Site
												{
													OFFSET 0.014112 -0.010584 -0.014294
												}
											}
										}
									}
								}
								JOINT palm.03.L
								{
									OFFSET 0.039230 -0.011402 0.008390
									CHANNELS 6 Xposition Yposition Zposition Yrotation Xrotation Zrotation
									JOINT f_ring.01.L
									{
										OFFSET 0.061796 -0.031470 0.007910
										CHANNELS 3 Xrotation Yrotation Zrotation
										JOINT f_ring.02.L
										{
											OFFSET 0.033092 -0.023401 -0.019127
											CHANNELS 3 Xrotation Yrotation Zrotation
											JOINT f_ring.03.L
											{
												OFFSET 0.021392 -0.015362 -0.017824
												CHANNELS 3 Xrotation Yrotation Zrotation
												End Site
												{
													OFFSET 0.008670 -0.007297 -0.014686
												}
											}
										}
									}
								}
								JOINT palm.04.L
								{
									OFFSET 0.043417 0.002450 0.002889
									CHANNELS 6 Xposition Yposition Zposition Yrotation Xrotation Zrotation
									JOINT f_pinky.01.L
									{
										OFFSET 0.069986 -0.026156 0.003627
										CHANNELS 3 Xrotation Yrotation Zrotation
										JOINT f_pinky.02.L
										{
											OFFSET 0.018520 -0.012813 -0.016429
											CHANNELS 3 Xrotation Yrotation Zrotation
											JOINT f_pinky.03.L
											{
												OFFSET 0.013822 -0.009796 -0.014947
												CHANNELS 3 Xrotation Yrotation Zrotation
												End Site
												{
													OFFSET 0.007238 -0.006103 -0.011657
												}
											}
										}
									}
								}
							}
						}
					}
				}
				JOINT shoulder.R
				{
					OFFSET -0.016662 0.078957 0.057696
					CHANNELS 6 Xposition Yposition Zposition Yrotation Xrotation Zrotation
					JOINT upper_arm.R
					{
						OFFSET -0.176972 -0.020537 -0.095144
						CHANNELS 6 Xposition Yposition Zposition Xrotation Yrotation Zrotation
						JOINT forearm.R
						{
							OFFSET -0.247100 -0.135500 -0.061800
							CHANNELS 3 Xrotation Yrotation Zrotation
							JOINT hand.R
							{
								OFFSET -0.217000 -0.143000 0.039300
								CHANNELS 3 Xrotation Yrotation Zrotation
								JOINT palm.01.R
								{
									OFFSET -0.021773 -0.038278 0.012988
									CHANNELS 6 Xposition Yposition Zposition Yrotation Xrotation Zrotation
									JOINT f_index.01.R
									{
										OFFSET -0.053212 -0.044139 0.008249
										CHANNELS 3 Xrotation Yrotation Zrotation
										JOINT f_index.02.R
										{
											OFFSET -0.036049 -0.024835 -0.010634
											CHANNELS 3 Xrotation Yrotation Zrotation
											JOINT f_index.03.R
											{
												OFFSET -0.021371 -0.014881 -0.010866
												CHANNELS 3 Xrotation Yrotation Zrotation
												End Site
												{
													OFFSET -0.015584 -0.009883 -0.013422
												}
											}
										}
									}
									JOINT thumb.01.R
									{
										OFFSET 0.009113 -0.002381 -0.024211
										CHANNELS 6 Xposition Yposition Zposition Xrotation Yrotation Zrotation
										JOINT thumb.02.R
										{
											OFFSET -0.019694 -0.035097 -0.011088
											CHANNELS 3 Xrotation Yrotation Zrotation
											JOINT thumb.03.R
											{
												OFFSET -0.024867 -0.021762 -0.005168
												CHANNELS 3 Xrotation Yrotation Zrotation
												End Site
												{
													OFFSET -0.016120 -0.013036 -0.001565
												}
											}
										}
									}
								}
								JOINT palm.02.R
								{
									OFFSET -0.032828 -0.025095 0.012286
									CHANNELS 6 Xposition Yposition Zposition Yrotation Xrotation Zrotation
									JOINT f_middle.01.R
									{
										OFFSET -0.055721 -0.038472 0.008040
										CHANNELS 3 Xrotation Yrotation Zrotation
										JOINT f_middle.02.R
										{
											OFFSET -0.038101 -0.027593 -0.015557
											CHANNELS 3 Xrotation Yrotation Zrotation
											JOINT f_middle.03.R
											{
												OFFSET -0.021730 -0.016530 -0.017054
												CHANNELS 3 Xrotation Yrotation Zrotation
												End Site
												{
													OFFSET -0.014096 -0.010608 -0.014293
												}
											}
										}
									}
								}
								JOINT palm.03.R
								{
									OFFSET -0.039192 -0.011488 0.008390
									CHANNELS 6 Xposition Yposition Zposition Yrotation Xrotation Zrotation
									JOINT f_ring.01.R
									{
										OFFSET -0.061839 -0.031387 0.007876
										CHANNELS 3 Xrotation Yrotation Zrotation
										JOINT f_ring.02.R
										{
											OFFSET -0.033068 -0.023437 -0.019125
											CHANNELS 3 Xrotation Yrotation Zrotation
											JOINT f_ring.03.R
											{
												OFFSET -0.021371 -0.015393 -0.017822
												CHANNELS 3 Xrotation Yrotation Zrotation
												End Site
												{
													OFFSET -0.008654 -0.007321 -0.014684
												}
											}
										}
									}
								}
								JOINT palm.04.R
								{
									OFFSET -0.043421 0.002443 0.002845
									CHANNELS 6 Xposition Yposition Zposition Yrotation Xrotation Zrotation
									JOINT f_pinky.01.R
									{
										OFFSET -0.069983 -0.026169 0.003599
										CHANNELS 3 Xrotation Yrotation Zrotation
										JOINT f_pinky.02.R
										{
											OFFSET -0.018501 -0.012842 -0.016428
											CHANNELS 3 Xrotation Yrotation Zrotation
											JOINT f_pinky.03.R
											{
												OFFSET -0.013806 -0.009821 -0.014946
												CHANNELS 3 Xrotation Yrotation Zrotation
												End Site
												{
													OFFSET -0.007226 -0.006121 -0.011655
												}
											}
										}
									}
								}
							}
						}
					}
				}
			}
		}
	}
	JOINT pelvis.L
	{
		OFFSET 0.000000 0.000000 0.000000
		CHANNELS 6 Xposition Yposition Zposition Xrotation Yrotation Zrotation
		JOINT thigh.L
		{
			OFFSET 0.101675 0.001054 -0.000000
			CHANNELS 3 Xrotation Yrotation Zrotation
			JOINT shin.L
			{
				OFFSET 0.000000 -0.534800 0.041000
				CHANNELS 3 Xrotation Yrotation Zrotation
				JOINT foot.L
				{
					OFFSET 0.000000 -0.452000 -0.044800
					CHANNELS 3 Xrotation Yrotation Zrotation
					JOINT toe.L
					{
						OFFSET -0.000000 -0.068500 0.109600
						CHANNELS 3 Xrotation Yrotation Zrotation
						End Site
						{
							OFFSET -0.000000 0.000000 0.067200
						}
					}
				}
				JOINT heel.L
				{
					OFFSET 0.000000 -0.452000 -0.044800
					CHANNELS 3 Xrotation Yrotation Zrotation
					JOINT heel.02.L
					{
						OFFSET -0.038000 -0.085200 0.016200
						CHANNELS 6 Xposition Yposition Zposition Xrotation Yrotation Zrotation
						End Site
						{
							OFFSET 0.080000 -0.000000 0.000000
						}
					}
				}
			}
		}
	}
	JOINT pelvis.R
	{
		OFFSET 0.000000 0.000000 0.000000
		CHANNELS 6 Xposition Yposition Zposition Xrotation Yrotation Zrotation
		JOINT thigh.R
		{
			OFFSET -0.094325 0.001054 0.000000
			CHANNELS 3 Xrotation Yrotation Zrotation
			JOINT shin.R
			{
				OFFSET 0.000000 -0.534800 0.041000
				CHANNELS 3 Xrotation Yrotation Zrotation
				JOINT foot.R
				{
					OFFSET 0.000000 -0.452000 -0.044800
					CHANNELS 3 Xrotation Yrotation Zrotation
					JOINT toe.R
					{
						OFFSET -0.000000 -0.068500 0.109600
						CHANNELS 3 Xrotation Yrotation Zrotation
						End Site
						{
							OFFSET -0.000000 0.000000 0.067200
						}
					}
				}
				JOINT heel.R
				{
					OFFSET 0.000000 -0.452000 -0.044800
					CHANNELS 3 Xrotation Yrotation Zrotation
					JOINT heel.02.R
					{
						OFFSET 0.038000 -0.085200 0.016200
						CHANNELS 6 Xposition Yposition Zposition Xrotation Yrotation Zrotation
						End Site
						{
							OFFSET -0.080000 0.000000 -0.000000
						}
					}
				}
			}
		}
	}
}
MOTION
Frames: 4
Frame Time: 0.041667
-0.002451 0.206894 -0.000251 69.590421 7.510254 73.049529 0.000000 0.000001 0.000003 -0.000000 0.000004 -0.000000 0.000001 0.000002 -0.000001 0.000001 0.000001 0.000000 0.000924 0.155148 0.009274 -17.512677 0.063366 -6.355208 0.019937 0.078966 0.057518 13.388681 8.085208 52.455026 0.177024 -0.020465 -0.095062 -70.853186 42.673598 -69.011822 14.428326 -8.680360 -59.789707 -0.000000 -0.000003 0.000000 0.021770 -0.038291 0.012954 0.000002 0.000004 -0.000001 -0.000000 -0.000002 0.000001 -0.000000 0.000001 0.000003 0.000001 0.000001 0.000002 -0.009090 -0.002348 -0.024223 0.000002 -0.000002 -0.000001 0.000001 -0.000001 0.000005 -0.000001 0.000004 -0.000001 0.032823 -0.025104 0.012281 0.000000 0.000003 0.000002 0.000003 -0.000003 -0.000004 -0.000004 -0.000003 0.000001 -0.000002 0.000001 0.000001 0.039230 -0.011402 0.008390 0.000005 0.000001 0.000003 0.000005 -0.000000 -0.000000 -0.000000 0.000005 0.000001 -0.000000 0.000000 0.000003 0.043417 0.002450 0.002889 0.000002 0.000003 -0.000000 -0.000001 0.000001 -0.000002 -0.000000 -0.000001 -0.000000 0.000001 -0.000002 -0.000002 -0.016662 0.078956 0.057696 14.800926 5.156219 -44.529145 -0.176972 -0.020537 -0.095144 -14.705669 -18.521810 77.409191 -61.052677 -4.343114 60.490443 -0.000003 -0.000003 0.000001 -0.021773 -0.038278 0.012988 0.000003 0.000002 -0.000003 -0.000003 0.000001 0.000002 -0.000002 -0.000000 -0.000006 0.000005 -0.000001 0.000002 0.009114 -0.002381 -0.024211 0.000000 -0.000003 0.000002 0.000001 0.000002 0.000004 -0.000001 0.000000 -0.000003 -0.032828 -0.025095 0.012286 0.000003 0.000001 -0.000001 -0.000002 0.000005 -0.000003 -0.000000 0.000003 -0.000000 -0.000005 0.000006 -0.000005 -0.039192 -0.011488 0.008390 0.000005 0.000003 0.000008 -0.000001 0.000003 0.000002 0.000002 0.000001 -0.000003 -0.000003 -0.000002 -0.000003 -0.043421 0.002442 0.002845 0.000005 0.000002 0.000005 -0.000003 0.000003 -0.000001 0.000001 -0.000005 0.000003 0.000001 -0.000002 -0.000004 0.000000 0.000000 -0.000000 -1.882457 2.150125 -24.679213 18.896072 -1.931738 -27.072090 -7.182470 0.091797 -0.924097 -0.000005 0.000001 -0.000001 -0.000001 -0.000001 0.000003 0.000002 -0.000001 -0.000000 -0.038000 -0.085200 0.016200 0.000002 -0.000002 0.000002 -0.000000 0.000000 -0.000000 -1.764847 2.097575 -23.449387 11.437096 -1.014678 -12.848785 4.382871 0.825235 -8.355755 0.000000 0.000001 0.000000 0.000002 0.000001 -0.000002 0.000007 0.000001 0.000002 0.038000 -0.085200 0.016200 -0.000002 0.000001 0.000000 
-0.004289 0.204309 -0.001373 78.012631 4.129147 70.934226 -0.000000 -0.000000 -0.000002 -0.000000 0.000001 0.000001 0.000000 -0.000000 -0.000003 0.000001 0.000000 -0.000000 0.000924 0.155148 0.009274 -13.021285 0.047801 -2.768849 0.019937 0.078966 0.057518 11.401806 7.554035 51.494060 0.177025 -0.020465 -0.095062 -74.331050 36.838898 -62.816102 -6.898030 -7.632160 -59.673170 -0.000002 0.000002 -0.000001 0.021770 -0.038291 0.012954 -0.000000 0.000000 0.000003 -0.000003 -0.000002 -0.000000 -0.000001 0.000001 0.000007 0.000001 0.000005 0.000005 -0.009090 -0.002348 -0.024223 -0.000002 0.000000 -0.000003 0.000001 -0.000001 0.000003 0.000001 -0.000000 0.000006 0.032823 -0.025104 0.012281 0.000000 -0.000000 0.000004 -0.000002 -0.000001 -0.000004 -0.000004 0.000000 0.000001 -0.000000 -0.000003 -0.000001 0.039230 -0.011402 0.008390 0.000002 -0.000002 0.000008 0.000002 0.000005 -0.000000 0.000002 0.000004 0.000005 0.000002 -0.000004 0.000002 0.043417 0.002450 0.002889 -0.000002 -0.000002 0.000000 -0.000003 -0.000005 -0.000000 0.000002 0.000000 0.000002 0.000003 0.000003 -0.000002 -0.016662 0.078957 0.057696 16.994697 5.222620 -45.419768 -0.176972 -0.020537 -0.095144 -27.911867 -20.451391 69.519421 -66.687734 -13.002123 64.990821 0.000001 0.000002 0.000003 -0.021773 -0.038278 0.012988 0.000002 0.000000 0.000000 0.000001 0.000004 0.000001 -0.000001 -0.000002 -0.000001 0.000002 0.000002 -0.000001 0.009114 -0.002381 -0.024212 0.000003 -0.000002 0.000001 -0.000001 -0.000004 0.000002 -0.000003 -0.000002 0.000003 -0.032828 -0.025095 0.012286 0.000003 0.000001 -0.000003 0.000001 0.000005 0.000006 0.000002 0.000001 -0.000002 0.000001 0.000001 -0.000006 -0.039192 -0.011488 0.008390 0.000002 0.000002 0.000005 0.000001 -0.000001 -0.000002 -0.000004 0.000002 0.000005 -0.000003 0.000002 -0.000004 -0.043421 0.002443 0.002844 0.000001 -0.000001 -0.000001 -0.000003 0.000005 -0.000001 0.000001 -0.000003 0.000000 0.000001 0.000003 -0.000001 0.000000 0.000000 0.000000 -1.919709 2.147224 -24.488141 14.863689 -1.870046 -25.905615 -8.466139 0.086414 -0.869776 -0.000002 0.000001 -0.000001 -0.000002 0.000001 0.000000 -0.000002 -0.000000 -0.000000 -0.038000 -0.085200 0.016200 0.000002 -0.000003 0.000000 0.000000 0.000000 0.000000 -1.800827 2.094586 -23.258355 9.278350 -0.676326 -8.520898 -2.446589 1.170793 -11.899125 0.000000 0.000001 -0.000002 0.000001 0.000002 -0.000002 0.000005 -0.000002 -0.000001 0.038000 -0.085200 0.016200 -0.000003 0.000001 0.000001 
-0.005314 0.203212 -0.003072 93.138966 7.075436 73.525661 0.000001 -0.000000 0.000001 0.000001 -0.000001 -0.000001 -0.000000 0.000001 0.000004 -0.000001 0.000000 0.000002 0.000924 0.155148 0.009274 -6.531569 0.002757 -22.354031 0.019937 0.078966 0.057518 19.061470 8.053417 45.824736 0.177024 -0.020465 -0.095062 -45.606467 17.824601 -63.756865 -45.132456 -9.887240 -49.469001 -0.000003 0.000003 0.000001 0.021770 -0.038291 0.012954 -0.000002 0.000004 0.000001 -0.000001 0.000001 0.000001 -0.000002 0.000001 0.000005 -0.000003 0.000001 0.000000 -0.009090 -0.002348 -0.024223 0.000002 -0.000000 0.000005 0.000000 0.000000 -0.000000 -0.000002 -0.000002 -0.000001 0.032823 -0.025104 0.012281 -0.000002 0.000003 0.000005 -0.000000 0.000001 -0.000003 -0.000005 -0.000002 0.000003 -0.000002 0.000002 -0.000004 0.039230 -0.011402 0.008390 -0.000001 0.000000 0.000003 0.000002 0.000000 -0.000000 0.000000 0.000004 0.000003 -0.000002 0.000004 0.000003 0.043417 0.002450 0.002889 0.000000 0.000002 -0.000002 0.000002 -0.000003 0.000001 -0.000001 0.000001 0.000003 0.000001 0.000000 -0.000002 -0.016662 0.078957 0.057696 14.922138 4.575127 -43.636187 -0.176972 -0.020537 -0.095144 -31.786894 -22.352839 72.242802 -44.300102 -6.788041 72.900624 -0.000000 0.000003 0.000001 -0.021773 -0.038278 0.012988 0.000004 0.000005 -0.000005 -0.000002 -0.000003 0.000002 -0.000001 -0.000004 -0.000007 -0.000002 0.000002 0.000005 0.009113 -0.002381 -0.024211 -0.000001 -0.000006 0.000003 -0.000002 -0.000005 0.000000 0.000000 -0.000005 -0.000008 -0.032828 -0.025095 0.012286 0.000005 0.000005 -0.000003 0.000000 0.000001 -0.000003 0.000001 0.000002 -0.000004 -0.000003 0.000003 -0.000006 -0.039192 -0.011488 0.008390 0.000003 0.000005 -0.000000 0.000002 -0.000001 0.000000 -0.000004 0.000000 -0.000000 -0.000001 -0.000001 -0.000000 -0.043421 0.002443 0.002844 0.000002 0.000005 -0.000001 -0.000001 0.000009 -0.000003 -0.000001 -0.000004 -0.000002 -0.000005 -0.000001 -0.000000 0.000000 0.000000 -0.000000 -1.947006 2.359858 -26.397286 5.501971 -1.828006 -24.662652 -19.014654 0.243780 -2.458205 -0.000002 0.000001 0.000001 0.000002 -0.000001 0.000002 0.000005 -0.000002 0.000000 -0.038000 -0.085200 0.016200 -0.000005 -0.000000 -0.000001 0.000000 0.000000 -0.000000 -1.818769 2.297896 -25.168318 -1.765912 -0.460425 -6.513864 -10.713623 1.492585 -15.241316 0.000003 -0.000000 -0.000001 0.000002 0.000000 -0.000003 0.000007 -0.000000 -0.000002 0.038000 -0.085200 0.016200 -0.000003 -0.000001 0.000002 
-0.006459 0.207722 0.001185 82.426675 16.532345 76.192113 0.000001 0.000000 0.000001 0.000000 -0.000000 -0.000000 -0.000003 -0.000001 -0.000000 0.000000 -0.000001 0.000001 0.000924 0.155148 0.009274 -1.665123 -0.022232 -27.180149 0.019937 0.078966 0.057518 -5.301704 4.290048 46.441058 0.177024 -0.020465 -0.095062 -37.692529 17.007463 -63.818071 -27.211043 -12.391821 -39.511637 -0.000002 -0.000003 0.000002 0.021770 -0.038291 0.012954 0.000001 0.000002 0.000005 -0.000002 0.000001 -0.000002 0.000001 -0.000002 0.000004 -0.000003 -0.000001 0.000001 -0.009090 -0.002348 -0.024223 -0.000002 0.000002 -0.000002 -0.000001 0.000004 0.000001 -0.000001 0.000001 0.000003 0.032823 -0.025104 0.012281 0.000003 0.000001 0.000005 -0.000003 -0.000003 -0.000007 -0.000003 -0.000001 0.000003 -0.000001 0.000001 0.000001 0.039230 -0.011402 0.008390 0.000005 -0.000000 0.000006 0.000002 -0.000001 -0.000002 -0.000003 0.000003 0.000003 0.000002 -0.000001 0.000003 0.043417 0.002450 0.002889 0.000003 -0.000002 -0.000002 -0.000001 -0.000001 0.000001 -0.000002 0.000002 0.000000 -0.000002 -0.000002 -0.000001 -0.016662 0.078956 0.057696 -5.072046 0.374587 -26.177117 -0.176972 -0.020537 -0.095144 -35.304018 -18.466970 64.575559 -27.603231 4.844165 63.469731 -0.000002 -0.000002 0.000002 -0.021773 -0.038278 0.012988 0.000000 0.000000 -0.000005 0.000001 0.000003 0.000004 -0.000000 -0.000000 -0.000004 -0.000001 0.000003 -0.000000 0.009113 -0.002381 -0.024212 0.000002 -0.000000 0.000002 0.000002 -0.000002 0.000002 -0.000000 0.000001 -0.000004 -0.032828 -0.025095 0.012286 0.000001 0.000001 -0.000010 -0.000001 0.000001 -0.000003 0.000000 -0.000002 -0.000004 -0.000002 0.000007 -0.000002 -0.039192 -0.011488 0.008390 0.000003 0.000003 -0.000002 0.000004 0.000004 -0.000005 0.000003 -0.000003 -0.000002 -0.000000 0.000004 -0.000000 -0.043421 0.002443 0.002844 -0.000001 0.000002 -0.000007 -0.000005 0.000004 -0.000003 -0.000000 -0.000001 0.000003 -0.000002 0.000001 -0.000000 -0.000000 0.000000 -0.000000 -2.132248 2.411687 -26.048374 2.163591 -1.713096 -22.789467 -15.262466 0.363377 -3.666647 0.000000 0.000001 0.000003 0.000000 0.000000 0.000002 -0.000002 -0.000000 0.000003 -0.038000 -0.085200 0.016200 -0.000003 -0.000002 0.000004 -0.000000 0.000000 0.000000 -1.994771 2.346299 -24.819893 -7.195478 -0.644294 -9.358921 5.905567 1.267879 -12.902555 -0.000002 0.000003 0.000000 -0.000000 0.000000 0.000001 0.000003 -0.000003 -0.000001 0.038000 -0.085200 0.016200 0.000003 -0.000002 0.000004 
